<?xml version="1.0" encoding="UTF-8" standalone="no"?>
<!-- Generator: Adobe Illustrator 17.0.0, SVG Export Plug-In . SVG Version: 6.00 Build 0)  -->

<svg
   xmlns:dc="http://purl.org/dc/elements/1.1/"
   xmlns:cc="http://creativecommons.org/ns#"
   xmlns:rdf="http://www.w3.org/1999/02/22-rdf-syntax-ns#"
   xmlns:svg="http://www.w3.org/2000/svg"
   xmlns="http://www.w3.org/2000/svg"
   xmlns:sodipodi="http://sodipodi.sourceforge.net/DTD/sodipodi-0.dtd"
   xmlns:inkscape="http://www.inkscape.org/namespaces/inkscape"
   version="1.1"
   id="Layer_1"
   x="0px"
   y="0px"
   width="256"
   height="256"
   viewBox="0 0 256 255.99999"
   enable-background="new 0 0 813.445 595.28"
   xml:space="preserve"
   sodipodi:docname="bathroom.svg"
   inkscape:version="0.92.3 (unknown)"
   inkscape:export-filename="/media/albertbrucelee/Local Disk/Albert Alfrianta/Job/Trendsolusi/RumahHokie/icon/used/bathroom.png"
   inkscape:export-xdpi="96"
   inkscape:export-ydpi="96"><metadata
   id="metadata42"><rdf:RDF><cc:Work
       rdf:about=""><dc:format>image/svg+xml</dc:format><dc:type
         rdf:resource="http://purl.org/dc/dcmitype/StillImage" /><dc:title></dc:title></cc:Work></rdf:RDF></metadata><defs
   id="defs40" /><sodipodi:namedview
   pagecolor="#ffffff"
   bordercolor="#666666"
   borderopacity="1"
   objecttolerance="10"
   gridtolerance="10"
   guidetolerance="10"
   inkscape:pageopacity="0"
   inkscape:pageshadow="2"
   inkscape:window-width="1920"
   inkscape:window-height="1056"
   id="namedview38"
   showgrid="false"
   inkscape:zoom="2.694712"
   inkscape:cx="167.40038"
   inkscape:cy="95.387363"
   inkscape:window-x="0"
   inkscape:window-y="24"
   inkscape:window-maximized="1"
   inkscape:current-layer="Layer_1" />
<g
   id="Layer_1_1_"
   transform="matrix(0.50628954,0,0,0.50628954,-91.316795,-27.106032)">
	<g
   transform="translate(1,1)"
   id="g34">
		<path
   d="M 657.762,371.197 H 207.177 c -14.145,0 -25.049,-10.904 -25.049,-25.049 0,-14.145 10.904,-25.049 25.049,-25.049 h 450.586 c 14.145,0 25.049,10.904 25.049,25.049 0,14.145 -10.904,25.049 -25.05,25.049 z m -450.585,-33.3 c -5.01,0 -8.251,3.242 -8.251,8.251 0,5.01 3.242,8.251 8.251,8.251 h 450.586 c 5.01,0 8.251,-3.242 8.251,-8.251 0,-5.01 -3.242,-8.251 -8.251,-8.251 z"
   id="path2"
   inkscape:connector-curvature="0" />
		<path
   d="M 568.47,504.693 H 296.469 c -26.817,0 -50.098,-18.271 -56.876,-44.204 l -24.165,-96.07 c -0.884,-2.358 0,-5.01 1.768,-7.367 1.768,-1.768 4.126,-2.358 6.778,-2.358 h 416.991 c 2.358,0 5.01,0.884 6.778,3.242 1.768,1.768 2.358,5.01 1.768,7.367 l -24.165,96.07 c -6.778,25.049 -30.059,43.32 -56.876,43.32 z M 234.583,371.197 256.39,456.363 c 5.01,18.271 21.807,31.827 40.962,31.827 h 272.002 c 19.155,0 35.953,-13.261 40.962,-31.827 l 20.039,-85.166 z"
   id="path4"
   inkscape:connector-curvature="0" />
		<path
   d="m 298.826,538.288 c -0.884,0 -2.358,0 -3.242,-0.884 -4.126,-1.768 -5.894,-6.778 -3.242,-10.904 l 16.797,-33.3 c 1.768,-4.126 6.778,-5.894 10.904,-3.242 4.126,1.768 5.894,6.778 3.242,10.904 l -16.797,33.3 c -1.768,2.358 -4.42,4.126 -7.662,4.126 z"
   id="path6"
   inkscape:connector-curvature="0" />
		<path
   d="m 574.364,538.288 c -3.242,0 -5.894,-1.768 -7.367,-5.01 l -16.797,-33.3 c -1.768,-4.126 0,-9.135 3.242,-10.904 4.126,-1.768 9.135,0 10.904,3.242 l 16.797,33.3 c 1.768,4.126 0,9.135 -3.242,10.904 -1.179,1.768 -2.063,1.768 -3.537,1.768 z"
   id="path8"
   inkscape:connector-curvature="0" />
		<path
   d="M 373.973,337.897 H 215.428 c -5.01,0 -8.251,-3.242 -8.251,-8.251 0,-23.281 18.271,-41.846 41.846,-41.846 7.367,0 15.029,2.358 21.807,5.894 6.778,-13.261 20.923,-22.397 36.837,-22.397 13.261,0 25.049,6.778 33.3,16.797 v 0 c 23.281,0 41.846,18.271 41.846,41.846 -0.589,4.715 -3.83,7.957 -8.84,7.957 z M 225.448,321.1 h 139.39 c -3.242,-10.02 -12.377,-16.797 -23.281,-16.797 -0.884,0 -1.768,0 -2.358,0 -3.242,0.884 -7.367,-0.884 -9.135,-4.126 -4.42,-8.251 -12.967,-12.377 -22.102,-12.377 -12.377,0 -22.397,9.135 -25.049,21.807 -0.884,3.242 -2.358,5.894 -5.894,6.778 -3.242,0.884 -6.778,0 -8.251,-2.358 -5.894,-5.894 -12.377,-9.135 -20.039,-9.135 -10.904,-0.295 -20.04,6.188 -23.281,16.208 z"
   id="path10"
   inkscape:connector-curvature="0" />
		<path
   d="M 649.511,329.646 H 632.713 V 146.052 c 0,-32.416 -25.933,-58.349 -58.349,-58.349 -34.184,0 -50.098,29.175 -50.098,58.349 h -16.798 c 0,-44.204 27.406,-75.147 66.895,-75.147 41.846,0 75.147,33.3 75.147,75.147 v 183.594 z"
   id="path12"
   inkscape:connector-curvature="0" />
		<path
   d="m 482.42,225.324 c -5.01,0 -8.251,-3.242 -8.251,-8.251 v -4.126 c 0,-5.01 3.242,-8.251 8.251,-8.251 5.009,0 8.251,3.242 8.251,8.251 v 4.126 c 0,4.715 -3.241,8.251 -8.251,8.251 z"
   id="path14"
   inkscape:connector-curvature="0" />
		<path
   d="m 482.42,263.634 c -5.01,0 -8.251,-3.242 -8.251,-8.251 v -9.135 c 0,-5.01 3.242,-8.251 8.251,-8.251 5.009,0 8.251,3.242 8.251,8.251 v 9.135 c 0,4.126 -3.241,8.251 -8.251,8.251 z"
   id="path16"
   inkscape:connector-curvature="0" />
		<path
   d="m 482.42,296.051 c -5.01,0 -8.251,-3.242 -8.251,-8.251 v -4.126 c 0,-5.01 3.242,-8.251 8.251,-8.251 5.009,0 8.251,3.242 8.251,8.251 v 4.126 c 0,5.009 -3.241,8.251 -8.251,8.251 z"
   id="path18"
   inkscape:connector-curvature="0" />
		<path
   d="m 515.72,225.324 c -5.01,0 -8.251,-3.242 -8.251,-8.251 v -4.126 c 0,-5.01 3.242,-8.251 8.251,-8.251 5.009,0 8.251,3.242 8.251,8.251 v 4.126 c 0.295,4.715 -3.241,8.251 -8.251,8.251 z"
   id="path20"
   inkscape:connector-curvature="0" />
		<path
   d="m 515.72,263.634 c -5.01,0 -8.251,-3.242 -8.251,-8.251 v -9.135 c 0,-5.01 3.242,-8.251 8.251,-8.251 5.009,0 8.251,3.242 8.251,8.251 v 9.135 c 0.295,4.126 -3.241,8.251 -8.251,8.251 z"
   id="path22"
   inkscape:connector-curvature="0" />
		<path
   d="m 515.72,296.051 c -5.01,0 -8.251,-3.242 -8.251,-8.251 v -4.126 c 0,-5.01 3.242,-8.251 8.251,-8.251 5.009,0 8.251,3.242 8.251,8.251 v 4.126 c 0.295,5.009 -3.241,8.251 -8.251,8.251 z"
   id="path24"
   inkscape:connector-curvature="0" />
		<path
   d="m 549.315,225.324 c -5.01,0 -8.251,-3.242 -8.251,-8.251 v -4.126 c 0,-5.01 3.242,-8.251 8.251,-8.251 5.009,0 8.251,3.242 8.251,8.251 v 4.126 c 10e-4,4.715 -3.241,8.251 -8.251,8.251 z"
   id="path26"
   inkscape:connector-curvature="0" />
		<path
   d="m 549.315,263.634 c -5.01,0 -8.251,-3.242 -8.251,-8.251 v -9.135 c 0,-5.01 3.242,-8.251 8.251,-8.251 5.009,0 8.251,3.242 8.251,8.251 v 9.135 c 10e-4,4.126 -3.241,8.251 -8.251,8.251 z"
   id="path28"
   inkscape:connector-curvature="0" />
		<path
   d="m 549.315,296.051 c -5.01,0 -8.251,-3.242 -8.251,-8.251 v -4.126 c 0,-5.01 3.242,-8.251 8.251,-8.251 5.009,0 8.251,3.242 8.251,8.251 v 4.126 c 10e-4,5.009 -3.241,8.251 -8.251,8.251 z"
   id="path30"
   inkscape:connector-curvature="0" />
		<path
   d="M 549.315,187.604 H 482.42 c -5.01,0 -8.251,-3.242 -8.251,-8.251 0,-23.281 18.271,-41.846 41.846,-41.846 23.575,0 41.846,18.271 41.846,41.846 -0.294,5.009 -3.536,8.251 -8.546,8.251 z M 492.44,171.101 h 47.446 c -3.242,-10.02 -12.377,-16.798 -23.281,-16.798 -10.904,0 -20.924,6.778 -24.165,16.798 z"
   id="path32"
   inkscape:connector-curvature="0" />
	</g>
</g>
</svg>