<?xml version="1.0" encoding="UTF-8" standalone="no"?>
<!-- Generator: Adobe Illustrator 22.0.1, SVG Export Plug-In . SVG Version: 6.00 Build 0)  -->

<svg
   xmlns:dc="http://purl.org/dc/elements/1.1/"
   xmlns:cc="http://creativecommons.org/ns#"
   xmlns:rdf="http://www.w3.org/1999/02/22-rdf-syntax-ns#"
   xmlns:svg="http://www.w3.org/2000/svg"
   xmlns="http://www.w3.org/2000/svg"
   xmlns:xlink="http://www.w3.org/1999/xlink"
   xmlns:sodipodi="http://sodipodi.sourceforge.net/DTD/sodipodi-0.dtd"
   xmlns:inkscape="http://www.inkscape.org/namespaces/inkscape"
   version="1.1"
   x="0px"
   y="0px"
   viewBox="0 0 256 256"
   xml:space="preserve"
   id="svg27"
   sodipodi:docname="building_area.svg"
   width="256"
   height="256"
   inkscape:export-filename="/media/albertbrucelee/Local Disk/Albert Alfrianta/Job/Trendsolusi/RumahHokie/icon/used/building_area.png"
   inkscape:export-xdpi="96"
   inkscape:export-ydpi="96"
   inkscape:version="0.92.3 (unknown)"><metadata
   id="metadata33"><rdf:RDF><cc:Work
       rdf:about=""><dc:format>image/svg+xml</dc:format><dc:type
         rdf:resource="http://purl.org/dc/dcmitype/StillImage" /><dc:title></dc:title></cc:Work></rdf:RDF></metadata><defs
   id="defs31" /><sodipodi:namedview
   pagecolor="#ffffff"
   bordercolor="#666666"
   borderopacity="1"
   objecttolerance="10"
   gridtolerance="10"
   guidetolerance="10"
   inkscape:pageopacity="0"
   inkscape:pageshadow="2"
   inkscape:window-width="1920"
   inkscape:window-height="1056"
   id="namedview29"
   showgrid="false"
   inkscape:zoom="2.0884956"
   inkscape:cx="15.442851"
   inkscape:cy="101.91782"
   inkscape:window-x="0"
   inkscape:window-y="24"
   inkscape:window-maximized="1"
   inkscape:current-layer="svg27" />
<style
   type="text/css"
   id="style2">
	.st0{fill:#FFFFFF;}
	.st1{fill:#E74424;}
	.st2{fill:#F7F1E6;}
	.st3{fill:#0FA862;}
	.st4{clip-path:url(#SVGID_2_);fill:#0FA862;}
	.st5{clip-path:url(#SVGID_2_);fill:#1AD85A;}
	.st6{fill:#19BF55;}
	.st7{fill:#72B1B7;}
	.st8{fill:#5D9BA5;}
	.st9{fill:#C43700;}
	.st10{fill:#FF9D00;}
	.st11{fill:#FF5B00;}
	.st12{fill:#DD4400;}
	.st13{fill:#EBF0F2;}
	.st14{fill:#CADFE5;}
	.st15{fill:#1B5A89;}
	.st16{fill:#18456D;}
	.st17{fill:#694B4B;}
	.st18{fill:#5A4146;}
	.st19{fill:#464655;}
	.st20{fill:#D29B6E;}
	.st21{fill:#5B5D6E;}
	.st22{fill:#F0C087;}
	.st23{fill:#E6AF78;}
	.st24{fill:#707487;}
	.st25{fill:#F4E6CE;}
	.st26{clip-path:url(#SVGID_4_);fill:none;stroke:#7F6E5D;stroke-width:1.6;stroke-linecap:round;stroke-miterlimit:10;}
	.st27{clip-path:url(#SVGID_4_);fill:#CB8252;}
	.st28{fill:#F29C1F;}
	
		.st29{clip-path:url(#SVGID_6_);fill:none;stroke:#F0C419;stroke-width:1.6;stroke-linecap:round;stroke-linejoin:round;stroke-miterlimit:10;}
	.st30{clip-path:url(#SVGID_6_);fill:#81CCB8;}
	.st31{clip-path:url(#SVGID_6_);fill:none;stroke:#81CCB8;stroke-width:1.6;stroke-linejoin:round;stroke-miterlimit:10;}
	.st32{fill:#546A79;}
	.st33{fill:#FFD0A1;}
	.st34{fill:#51565F;}
	.st35{fill:#29ABE2;}
	.st36{clip-path:url(#SVGID_8_);fill:#29ABE2;}
	.st37{clip-path:url(#SVGID_8_);fill:#2BE0C6;}
	.st38{fill:#FC7A51;}
	.st39{fill:#F9DE58;}
	.st40{fill:#808080;}
	.st41{fill:#FDA589;}
	.st42{fill:#FBE98E;}
	.st43{fill:#A9A9A9;}
	.st44{clip-path:url(#SVGID_10_);fill:#0FA862;}
	.st45{clip-path:url(#SVGID_10_);fill:#1AD85A;}
	.st46{clip-path:url(#SVGID_12_);}
	.st47{fill:#7F6E5D;}
	.st48{fill:#CB8252;}
	.st49{clip-path:url(#SVGID_14_);}
	.st50{fill:#F0C419;}
	.st51{fill:#81CCB8;}
	.st52{fill:#EB2027;}
	.st53{clip-path:url(#SVGID_16_);fill:#29ABE2;}
	.st54{clip-path:url(#SVGID_16_);fill:#2BE0C6;}
	.st55{fill:#231F20;}
	.st56{fill:#2A3B8F;}
	.st57{fill:#EC2227;}
	.st58{fill:#221F1F;}
	.st59{fill:#67CDFD;}
	.st60{fill:#727270;}
	.st61{fill-rule:evenodd;clip-rule:evenodd;fill:#727270;}
	.st62{fill-rule:evenodd;clip-rule:evenodd;fill:#67CDFD;}
	.st63{fill-rule:evenodd;clip-rule:evenodd;fill:#FFFFFF;}
	.st64{fill-rule:evenodd;clip-rule:evenodd;fill:#ACBC71;}
	.st65{opacity:0.4;}
	.st66{clip-path:url(#SVGID_18_);fill:#2A3B8F;}
	.st67{clip-path:url(#SVGID_20_);fill:#2A3B8F;}
	.st68{fill:#A2A4AA;}
	.st69{clip-path:url(#SVGID_22_);fill:#A2A4AA;}
	.st70{clip-path:url(#SVGID_24_);fill:#2A3B8F;}
	.st71{clip-path:url(#SVGID_26_);fill:#2A3B8F;}
	.st72{clip-path:url(#SVGID_28_);fill:#2A3B8F;}
	.st73{clip-path:url(#SVGID_30_);fill:#A2A4AA;}
	.st74{clip-path:url(#SVGID_32_);fill:#2A3B8F;}
	.st75{clip-path:url(#SVGID_34_);fill:#2A3B8F;}
	.st76{clip-path:url(#SVGID_36_);fill:#2A3B8F;}
	.st77{fill:#EFEFEF;}
	.st78{fill:#26A6D1;}
	.st79{fill:#E2574C;}
	.st80{fill:#DCDCDC;}
	.st81{fill:#E4E7E7;}
	.st82{fill:#BFC3C5;}
	.st83{clip-path:url(#SVGID_38_);fill:#FFFFFF;}
	.st84{clip-path:url(#SVGID_40_);fill:#FFFFFF;}
	.st85{fill:none;stroke:#FFFFFF;stroke-width:0.25;stroke-miterlimit:10;}
	.st86{clip-path:url(#SVGID_42_);fill:#FFFFFF;}
	.st87{clip-path:url(#SVGID_44_);fill:#FFFFFF;}
	.st88{clip-path:url(#SVGID_46_);fill:#FFFFFF;}
	.st89{clip-path:url(#SVGID_48_);fill:#2A3B8F;}
	.st90{clip-path:url(#SVGID_50_);fill:#2A3B8F;}
	.st91{clip-path:url(#SVGID_52_);fill:#2A3B8F;}
	.st92{clip-path:url(#SVGID_54_);fill:#2A3B8F;}
	.st93{clip-path:url(#SVGID_56_);fill:#FFFFFF;}
	.st94{clip-path:url(#SVGID_58_);fill:#231F20;}
	.st95{clip-path:url(#SVGID_60_);fill:#FFFFFF;}
	.st96{clip-path:url(#SVGID_62_);fill:#FFFFFF;}
	.st97{fill-rule:evenodd;clip-rule:evenodd;fill:#2A3B8F;}
	.st98{fill-rule:evenodd;clip-rule:evenodd;fill:#EC2227;}
	.st99{clip-path:url(#SVGID_64_);fill:#808285;}
	.st100{fill:#808285;}
	.st101{clip-path:url(#SVGID_66_);fill:#808285;}
	.st102{clip-path:url(#SVGID_68_);}
	.st103{clip-path:url(#SVGID_70_);fill:#FFFFFF;}
	.st104{clip-path:url(#SVGID_72_);}
</style>
<g
   id="Layer_7"
   transform="translate(0,30)">
</g>
<g
   id="Layer_2"
   transform="translate(0,30)">
</g>
<g
   id="Layer_1"
   transform="matrix(1.3342054,0,0,1.3342054,-3.0104194,-25.835445)">
	<g
   id="g20">
		<g
   id="g16">
			<defs
   id="defs7">
				<rect
   id="SVGID_57_"
   x="26.1"
   y="12.2"
   width="147.60001"
   height="205.8" />
			</defs>
			<clipPath
   id="SVGID_2_">
				<use
   xlink:href="#SVGID_57_"
   style="overflow:visible"
   id="use9"
   x="0"
   y="0"
   width="100%"
   height="100%" />
			</clipPath>
			<path
   style="fill:#231f20"
   d="M 170.9,87.2 102.6,35.7 c -1.8,-1.4 -4.3,-1.4 -6.1,0 L 28.2,87.2 c -1.3,1 -2,2.5 -2,4.1 V 178 c 0,2.8 2.3,5.1 5.1,5.1 h 136.6 c 2.8,0 5.1,-2.3 5.1,-5.1 V 91.3 c 0,-1.6 -0.8,-3.1 -2.1,-4.1 z m -63,85.7 H 91.2 v -37 h 16.7 z m 54.9,0 h -44.6 v -42.1 c 0,-2.8 -2.3,-5.1 -5.1,-5.1 h -27 c -2.8,0 -5.1,2.3 -5.1,5.1 v 42.1 H 36.3 V 93.8 l 63.2,-47.7 63.2,47.7 v 79.1 z m 0,0"
   clip-path="url(#SVGID_2_)"
   id="path12"
   inkscape:connector-curvature="0" />
			<path
   style="fill:#231f20"
   d="m 28,80 c 0.3,-0.6 0.4,-1.3 1,-1.7 L 97.3,26.8 c 1.8,-1.4 4.3,-1.4 6.1,0 l 68.3,51.5 c 0.4,0.3 0.4,0.8 0.7,1.2 1.5,-2.2 1.1,-5.2 -1.1,-6.8 L 103,21.2 c -1.8,-1.4 -4.3,-1.4 -6.1,0 L 28.6,72.6 c -2.3,1.7 -2.7,4.9 -1,7.1 0.1,0.2 0.3,0.1 0.4,0.3 z"
   clip-path="url(#SVGID_2_)"
   id="path14"
   inkscape:connector-curvature="0" />
		</g>
		<path
   class="st55"
   d="m 166.2,210 c -0.7,0 -1.5,-0.2 -2,-0.7 -1.1,-1 -1.1,-2.5 0,-3.5 l 1.3,-1.1 H 35.8 l 1.3,1.1 c 1.1,1 1.1,2.5 0,3.5 -1.1,1 -2.9,1 -4,0 l -6,-5.2 c -0.6,-0.5 -0.8,-1.1 -0.8,-1.8 v 0 c 0,-0.8 0.5,-1.6 1.2,-2 l 5.8,-5 c 1.1,-1 2.9,-1 4,0 1.1,1 1.1,2.5 0,3.5 l -1.3,1.1 h 129.7 l -1.3,-1.1 c -1.1,-1 -1.1,-2.5 0,-3.5 1.1,-1 2.9,-1 4,0 l 6,5.2 c 0.6,0.5 0.8,1.1 0.8,1.8 v 0 c 0,0.8 -0.5,1.6 -1.2,2 l -5.8,5 c -0.6,0.4 -1.3,0.7 -2,0.7 z"
   id="path18"
   inkscape:connector-curvature="0"
   style="fill:#231f20" />
	</g>
</g>
<g
   id="Layer_3"
   transform="translate(0,30)">
</g>
<g
   id="Layer_4"
   transform="translate(0,30)">
</g>
<g
   id="Layer_5"
   transform="translate(0,30)">
</g>
<g
   id="Layer_6"
   transform="translate(0,30)">
</g>
</svg>