<?xml version="1.0" encoding="UTF-8" standalone="no"?>
<!-- Generator: Adobe Illustrator 17.0.0, SVG Export Plug-In . SVG Version: 6.00 Build 0)  -->

<svg
   xmlns:dc="http://purl.org/dc/elements/1.1/"
   xmlns:cc="http://creativecommons.org/ns#"
   xmlns:rdf="http://www.w3.org/1999/02/22-rdf-syntax-ns#"
   xmlns:svg="http://www.w3.org/2000/svg"
   xmlns="http://www.w3.org/2000/svg"
   xmlns:xlink="http://www.w3.org/1999/xlink"
   xmlns:sodipodi="http://sodipodi.sourceforge.net/DTD/sodipodi-0.dtd"
   xmlns:inkscape="http://www.inkscape.org/namespaces/inkscape"
   version="1.1"
   id="Layer_1"
   x="0px"
   y="0px"
   width="256"
   height="256"
   viewBox="-1475.926 834.013 256 255.99999"
   enable-background="new -1475.926 834.013 759.076 723.072"
   xml:space="preserve"
   sodipodi:docname="garage.svg"
   inkscape:version="0.92.3 (unknown)"
   inkscape:export-filename="/media/albertbrucelee/Local Disk/Albert Alfrianta/Job/Trendsolusi/RumahHokie/icon/used/garage2.png"
   inkscape:export-xdpi="48"
   inkscape:export-ydpi="48"><metadata
   id="metadata48"><rdf:RDF><cc:Work
       rdf:about=""><dc:format>image/svg+xml</dc:format><dc:type
         rdf:resource="http://purl.org/dc/dcmitype/StillImage" /><dc:title></dc:title></cc:Work></rdf:RDF></metadata><defs
   id="defs46" /><sodipodi:namedview
   pagecolor="#ffffff"
   bordercolor="#666666"
   borderopacity="1"
   objecttolerance="10"
   gridtolerance="10"
   guidetolerance="10"
   inkscape:pageopacity="0"
   inkscape:pageshadow="2"
   inkscape:window-width="1920"
   inkscape:window-height="1056"
   id="namedview44"
   showgrid="false"
   inkscape:zoom="2.6110815"
   inkscape:cx="89.486317"
   inkscape:cy="104.86118"
   inkscape:window-x="0"
   inkscape:window-y="24"
   inkscape:window-maximized="1"
   inkscape:current-layer="Layer_1" />
<g
   id="g41"
   transform="matrix(0.47035608,0,0,0.47035608,-811.21393,389.4533)">
	<g
   id="g4">
		<rect
   x="-1056.251"
   y="1044.6851"
   width="26.365999"
   height="424.604"
   id="rect2" />
	</g>
	<g
   id="g8">
		
			<rect
   x="-1159.215"
   y="1015.646"
   transform="matrix(-0.8759,0.4825,-0.4825,-0.8759,-1408.1522,2419.8481)"
   width="287.871"
   height="26.365999"
   id="rect6" />
	</g>
	<g
   id="g39">
		<g
   id="Capa_1">
			<defs
   id="defs11">
				<rect
   id="SVGID_1_"
   x="-1502.224"
   y="1061.3361"
   width="447.5"
   height="426.68701" />
			</defs>
			<clipPath
   id="SVGID_2_">
				<use
   xlink:href="#SVGID_1_"
   overflow="visible"
   id="use13"
   style="overflow:visible"
   x="0"
   y="0"
   width="100%"
   height="100%" />
			</clipPath>
			<g
   clip-path="url(#SVGID_2_)"
   id="g36">
				<path
   d="m -1200.361,1293.53 c 0,8.32 6.769,15.09 15.089,15.09 h 277.531 c 5.589,0 10.122,-4.532 10.122,-10.122 0,-5.59 -4.532,-10.122 -10.122,-10.122 h -33.626 v -74.341 h 27.51 c 27.225,0 52.841,10.582 72.13,29.799 13.338,13.29 28.54,24.41 45.18,33.05 2.027,1.052 3.286,3.12 3.286,5.397 0,3.361 -2.735,6.096 -6.096,6.096 h -41.894 c -5.589,0 -10.122,4.532 -10.122,10.122 0,5.59 4.532,10.122 10.122,10.122 h 41.894 c 14.523,0 26.338,-11.815 26.338,-26.338 0,-9.862 -5.441,-18.814 -14.2,-23.363 -14.811,-7.69 -28.343,-17.59 -40.221,-29.425 -23.11,-23.021 -53.8,-35.701 -86.417,-35.701 h -122.879 c -24.52,0 -48.221,7.255 -68.54,20.982 l -66.948,45.227 c -4.141,2.798 -8.462,5.437 -12.842,7.847 -9.433,5.184 -15.295,15.026 -15.295,25.68 z m 21.905,-5.152 c 0.802,-1.128 1.869,-2.091 3.143,-2.792 4.921,-2.706 9.771,-5.67 14.419,-8.81 l 66.948,-45.227 c 16.959,-11.457 36.741,-17.512 57.208,-17.512 h 75.125 v 74.342 h -216.843 z"
   id="path16"
   inkscape:connector-curvature="0" />
				<path
   d="m -1090.761,1324.006 h 31.264 c 5.589,0 10.122,4.532 10.122,10.122 0,5.59 -4.532,10.122 -10.122,10.122 h -31.264 c -5.589,0 -10.122,-4.532 -10.122,-10.122 0,-5.59 4.532,-10.122 10.122,-10.122 z"
   id="path18"
   inkscape:connector-curvature="0" />
				<path
   d="m -936.615,1396.995 c -11.981,11.981 -11.981,31.475 0,43.456 5.803,5.805 13.52,9 21.728,9 8.209,0 15.926,-3.197 21.73,-9 5.803,-5.803 9,-13.52 9,-21.728 0,-8.208 -3.197,-15.925 -9,-21.728 v 0 c -5.803,-5.803 -13.52,-9 -21.728,-9 -8.208,0 -15.924,3.195 -21.73,9 z m 14.315,14.312 c 1.98,-1.982 4.614,-3.072 7.414,-3.072 2.802,0 5.434,1.092 7.414,3.072 v 0 c 1.982,1.98 3.072,4.613 3.072,7.414 0,2.801 -1.092,5.434 -3.072,7.414 -1.98,1.982 -4.613,3.072 -7.414,3.072 -2.8,0 -5.434,-1.091 -7.414,-3.071 -4.088,-4.087 -4.088,-10.74 0,-14.829 z"
   id="path20"
   inkscape:connector-curvature="0" />
				<path
   d="m -1297.885,1396.996 c -5.803,5.803 -8.999,13.52 -8.999,21.728 0,8.208 3.196,15.925 9,21.728 5.803,5.803 13.519,8.999 21.728,8.999 8.208,0 15.925,-3.196 21.729,-9 11.98,-11.981 11.98,-31.475 0,-43.456 -5.806,-5.805 -13.521,-9 -21.729,-9 -8.209,-10e-4 -15.925,3.196 -21.729,9.001 z m 11.243,21.728 c 0,-2.802 1.091,-5.434 3.071,-7.414 1.982,-1.982 4.614,-3.072 7.416,-3.072 2.8,0 5.434,1.092 7.414,3.072 4.088,4.088 4.088,10.74 0,14.829 -1.98,1.98 -4.614,3.071 -7.414,3.071 -2.802,0 -5.434,-1.091 -7.414,-3.071 -1.983,-1.982 -3.073,-4.616 -3.073,-7.415 z"
   id="path22"
   inkscape:connector-curvature="0" />
				<g
   id="g34">
					<g
   id="g32">
						<defs
   id="defs25">
							<path
   id="SVGID_3_"
   d="m -847.971,1129.196 -262.269,27.753 -135.991,92.974 -5.398,5.956 -52.813,10.5 -87.494,7.134 -92.974,163.745 116.564,106.85 464.869,-15.264 c 0,0 209.538,-15.264 227.577,-31.916 18.04,-16.652 65.22,-112.401 56.894,-138.767 -8.326,-26.366 13.877,-165.132 -5.551,-176.234 -19.427,-11.101 -123.502,-43.018 -131.828,-47.181 -8.326,-4.163 -91.586,-5.55 -91.586,-5.55 z"
   inkscape:connector-curvature="0" />
						</defs>
						<clipPath
   id="SVGID_4_">
							<use
   xlink:href="#SVGID_3_"
   overflow="visible"
   id="use27"
   style="overflow:visible"
   x="0"
   y="0"
   width="100%"
   height="100%" />
						</clipPath>
						<path
   clip-path="url(#SVGID_4_)"
   d="m -1397.49,1346.911 v 52.498 c 0,20.694 16.837,37.531 37.531,37.531 h 19.201 c 3.004,10.723 8.699,20.843 17.118,29.262 12.683,12.683 29.546,19.667 47.482,19.667 17.937,0 34.797,-6.986 47.48,-19.667 8.419,-8.419 14.115,-18.539 17.12,-29.262 h 336.143 c 3.004,10.723 8.699,20.843 17.118,29.262 13.091,13.09 30.284,19.635 47.48,19.635 17.196,0 34.391,-6.546 47.48,-19.635 9.85,-9.85 15.992,-22.024 18.43,-34.772 l 40.314,-17.917 c 10.686,-4.749 17.59,-15.374 17.59,-27.067 v -98.025 c 0,-22.072 -15.679,-41.377 -37.282,-45.901 l -14.532,-3.043 c -25.321,-5.304 -48.392,-17.758 -66.721,-36.018 -28.965,-28.857 -67.435,-44.75 -108.323,-44.75 h -122.878 c -30.737,0 -60.445,9.095 -85.916,26.3 l -66.947,45.225 c -11.984,8.097 -30.058,19.286 -48.598,22.973 l -13.433,2.671 v -121.947 h 76.684 c 13.922,0 25.25,-11.326 25.25,-25.25 v -56.546 c 0,-5.59 -4.531,-10.122 -10.122,-10.122 -5.591,0 -10.122,4.532 -10.122,10.122 v 56.546 c 0,2.761 -2.247,5.008 -5.008,5.008 v 0 h -197.122 v 0 c -2.761,0 -5.008,-2.247 -5.008,-5.008 v -197.12 c 0,-2.761 2.247,-5.008 5.008,-5.008 h 197.121 c 2.761,0 5.008,2.247 5.008,5.008 v 74.774 c 0,5.59 4.531,10.122 10.122,10.122 5.591,0 10.122,-4.532 10.122,-10.122 v -74.774 c 0,-13.922 -11.326,-25.25 -25.25,-25.25 h -197.12 c -13.922,0 -25.25,11.326 -25.25,25.25 v 197.119 c 0,13.922 11.326,25.25 25.25,25.25 h 67.624 v 132.449 l -26.131,5.197 c -22.895,4.554 -42.937,18.634 -54.986,38.629 l -3.197,5.306 c -5.708,9.478 -8.727,20.335 -8.73,31.4 z m 125.617,-87.009 -12.328,2.452 V 1133.93 h 12.328 z m 421.809,133.141 c 0.058,-0.089 0.117,-0.179 0.176,-0.268 0.348,-0.523 0.709,-1.039 1.08,-1.55 0.167,-0.229 0.337,-0.457 0.509,-0.683 0.305,-0.405 0.615,-0.81 0.935,-1.209 0.286,-0.354 0.584,-0.702 0.881,-1.049 0.243,-0.284 0.48,-0.572 0.731,-0.852 0.572,-0.637 1.16,-1.266 1.771,-1.876 0.566,-0.566 1.143,-1.114 1.732,-1.646 0.09,-0.082 0.185,-0.158 0.276,-0.239 0.509,-0.452 1.021,-0.899 1.544,-1.325 0.021,-0.017 0.042,-0.03 0.061,-0.047 17.135,-13.922 41.878,-13.939 59.034,-0.056 0.046,0.037 0.094,0.072 0.14,0.11 0.489,0.398 0.966,0.816 1.44,1.236 0.125,0.111 0.255,0.215 0.379,0.328 0.476,0.432 0.942,0.881 1.406,1.336 0.106,0.103 0.215,0.2 0.319,0.304 0.047,0.047 0.09,0.097 0.137,0.144 0.547,0.551 1.078,1.113 1.594,1.686 0.203,0.226 0.393,0.461 0.591,0.69 0.347,0.403 0.695,0.805 1.028,1.217 0.228,0.282 0.443,0.57 0.663,0.856 0.283,0.366 0.565,0.733 0.835,1.106 0.236,0.326 0.462,0.659 0.69,0.991 0.23,0.334 0.458,0.67 0.679,1.01 0.244,0.376 0.479,0.756 0.71,1.138 0.179,0.294 0.355,0.59 0.527,0.888 0.25,0.433 0.494,0.869 0.729,1.307 0.128,0.236 0.25,0.473 0.372,0.712 0.26,0.505 0.513,1.013 0.753,1.526 0.064,0.139 0.125,0.279 0.189,0.418 7.874,17.299 4.713,38.431 -9.499,52.643 -8.859,8.859 -20.637,13.738 -33.167,13.738 -12.53,0 -24.308,-4.879 -33.167,-13.738 -15.958,-15.963 -17.984,-40.661 -6.078,-58.846 z m -465.344,0 c 0.058,-0.089 0.116,-0.178 0.176,-0.266 0.347,-0.523 0.709,-1.038 1.079,-1.55 0.167,-0.229 0.337,-0.455 0.508,-0.681 0.307,-0.407 0.616,-0.812 0.938,-1.212 0.284,-0.353 0.581,-0.699 0.878,-1.045 0.244,-0.286 0.482,-0.574 0.734,-0.855 0.572,-0.637 1.16,-1.266 1.771,-1.876 8.859,-8.859 20.637,-13.738 33.167,-13.738 12.529,0 24.306,4.879 33.165,13.738 0.611,0.61 1.199,1.238 1.771,1.875 0.254,0.282 0.494,0.573 0.74,0.86 0.296,0.344 0.59,0.688 0.874,1.039 0.323,0.401 0.634,0.808 0.941,1.215 0.171,0.224 0.34,0.448 0.505,0.676 0.372,0.513 0.734,1.031 1.082,1.556 0.058,0.086 0.115,0.173 0.172,0.261 11.908,18.184 9.882,42.886 -6.083,58.85 -8.859,8.859 -20.636,13.738 -33.165,13.738 -12.529,0 -24.308,-4.879 -33.168,-13.738 -15.962,-15.963 -17.988,-40.663 -6.085,-58.847 z m -61.84,6.366 v -52.498 c 0,-7.384 2.014,-14.63 5.825,-20.954 v 0 l 3.197,-5.306 c 9.115,-15.126 24.276,-25.776 41.597,-29.221 l 92.377,-18.37 c 22.126,-4.402 42.546,-16.977 55.98,-26.053 l 66.947,-45.225 c 22.111,-14.935 47.901,-22.831 74.584,-22.831 h 122.878 c 35.495,0 68.891,13.796 94.035,38.848 21.112,21.033 47.689,35.38 76.857,41.49 l 14.532,3.043 c 12.279,2.573 21.192,13.545 21.192,26.091 v 98.025 c 0,3.701 -2.186,7.065 -5.569,8.569 l -31.546,14.021 c -1.088,-7.534 -3.461,-14.797 -6.99,-21.512 -0.015,-0.026 -0.029,-0.054 -0.043,-0.08 -0.487,-0.926 -0.996,-1.841 -1.528,-2.745 -0.03,-0.051 -0.06,-0.104 -0.09,-0.155 -1.088,-1.836 -2.265,-3.626 -3.533,-5.362 -0.143,-0.198 -0.294,-0.391 -0.441,-0.588 -0.472,-0.631 -0.955,-1.256 -1.45,-1.873 -0.208,-0.261 -0.42,-0.519 -0.633,-0.776 -0.479,-0.577 -0.97,-1.148 -1.469,-1.712 -0.207,-0.232 -0.408,-0.466 -0.617,-0.697 -0.708,-0.777 -1.431,-1.545 -2.179,-2.292 -13.09,-13.09 -30.286,-19.635 -47.48,-19.635 -12.896,0 -25.791,3.681 -36.956,11.044 -3.72,2.455 -7.251,5.319 -10.523,8.591 -0.803,0.803 -1.581,1.625 -2.337,2.459 -0.121,0.133 -0.232,0.271 -0.351,0.404 -0.645,0.724 -1.279,1.456 -1.89,2.202 -0.043,0.054 -0.085,0.108 -0.128,0.162 -9.356,11.494 -14.554,25.525 -14.952,40.23 h -331.067 c -0.398,-14.687 -5.585,-28.701 -14.917,-40.185 -0.058,-0.072 -0.112,-0.146 -0.171,-0.216 -0.581,-0.71 -1.186,-1.407 -1.8,-2.098 -0.15,-0.169 -0.291,-0.344 -0.444,-0.512 -0.645,-0.712 -1.314,-1.408 -1.994,-2.098 -0.113,-0.115 -0.217,-0.234 -0.33,-0.348 -9.512,-9.511 -21.374,-15.818 -34.278,-18.377 -4.302,-0.852 -8.719,-1.289 -13.202,-1.289 -5.606,0 -11.106,0.681 -16.406,2.007 -11.66,2.914 -22.355,8.941 -31.075,17.659 -0.117,0.115 -0.222,0.237 -0.337,0.354 -0.677,0.686 -1.343,1.381 -1.987,2.09 -0.157,0.175 -0.304,0.355 -0.459,0.53 -0.608,0.686 -1.206,1.375 -1.783,2.079 -0.064,0.078 -0.123,0.158 -0.186,0.236 -9.325,11.483 -14.507,25.489 -14.904,40.169 h -16.663 c -9.533,0 -17.289,-7.756 -17.289,-17.289 v -0.01 z"
   id="path30"
   inkscape:connector-curvature="0" />
					</g>
				</g>
			</g>
		</g>
	</g>
</g>
</svg>