<?xml version="1.0" encoding="UTF-8" standalone="no"?>
<!-- Generator: Adobe Illustrator 17.0.0, SVG Export Plug-In . SVG Version: 6.00 Build 0)  -->

<svg
   xmlns:dc="http://purl.org/dc/elements/1.1/"
   xmlns:cc="http://creativecommons.org/ns#"
   xmlns:rdf="http://www.w3.org/1999/02/22-rdf-syntax-ns#"
   xmlns:svg="http://www.w3.org/2000/svg"
   xmlns="http://www.w3.org/2000/svg"
   xmlns:xlink="http://www.w3.org/1999/xlink"
   xmlns:sodipodi="http://sodipodi.sourceforge.net/DTD/sodipodi-0.dtd"
   xmlns:inkscape="http://www.inkscape.org/namespaces/inkscape"
   version="1.1"
   id="Layer_1"
   x="0px"
   y="0px"
   width="256"
   height="256"
   viewBox="0 -39.86 256 255.99999"
   enable-background="new 0 -39.86 814.445 635.14"
   xml:space="preserve"
   sodipodi:docname="land_area.svg"
   inkscape:version="0.92.3 (unknown)"
   inkscape:export-filename="/media/albertbrucelee/Local Disk/Albert Alfrianta/Job/Trendsolusi/RumahHokie/icon/used/land_area.png"
   inkscape:export-xdpi="96.953476"
   inkscape:export-ydpi="96.953476"><metadata
   id="metadata22"><rdf:RDF><cc:Work
       rdf:about=""><dc:format>image/svg+xml</dc:format><dc:type
         rdf:resource="http://purl.org/dc/dcmitype/StillImage" /><dc:title></dc:title></cc:Work></rdf:RDF></metadata><defs
   id="defs20" /><sodipodi:namedview
   pagecolor="#ffffff"
   bordercolor="#666666"
   borderopacity="1"
   objecttolerance="10"
   gridtolerance="10"
   guidetolerance="10"
   inkscape:pageopacity="0"
   inkscape:pageshadow="2"
   inkscape:window-width="1920"
   inkscape:window-height="1056"
   id="namedview18"
   showgrid="false"
   inkscape:zoom="2.6914033"
   inkscape:cx="41.524441"
   inkscape:cy="85.489669"
   inkscape:window-x="0"
   inkscape:window-y="24"
   inkscape:window-maximized="1"
   inkscape:current-layer="Layer_1" />
<g
   id="Layer_1_1_"
   transform="matrix(0.49140881,0,0,0.49140881,-79.032326,-60.612124)">
	<g
   id="g14">
		<g
   id="g12">
			<g
   id="g10">
				<defs
   id="defs3">
					<rect
   id="SVGID_1_"
   x="162.464"
   y="51.525002"
   width="516.96301"
   height="503.91" />
				</defs>
				<clipPath
   id="SVGID_2_">
					<use
   xlink:href="#SVGID_1_"
   overflow="visible"
   id="use5"
   style="overflow:visible"
   x="0"
   y="0"
   width="100%"
   height="100%" />
				</clipPath>
				<path
   clip-path="url(#SVGID_2_)"
   d="m 650.573,555.091 c -2.061,0 -4.465,-0.687 -5.839,-2.404 -3.435,-3.435 -3.435,-8.587 0,-12.022 l 3.779,-3.779 H 261.047 l 3.778,3.779 c 3.435,3.435 3.435,8.587 0,12.022 -3.435,3.435 -8.587,3.435 -12.022,0 l -17.862,-17.862 c -1.717,-1.717 -2.404,-3.779 -2.404,-6.183 v 0 c 0,-2.748 1.374,-5.496 3.778,-6.87 l 17.175,-17.175 c 3.435,-3.435 8.587,-3.435 12.022,0 3.435,3.435 3.435,8.587 0,12.022 l -3.778,3.779 h 387.121 l -3.779,-3.779 c -3.435,-3.435 -3.435,-8.587 0,-12.022 3.435,-3.435 8.587,-3.435 12.022,0 l 17.862,17.862 c 1.717,1.717 2.404,3.778 2.404,6.183 v 0 c 0,2.748 -1.374,5.496 -3.779,6.87 l -17.175,17.175 c -1.372,1.717 -3.776,2.404 -5.837,2.404 z m -461.66,-58.738 c -2.748,0 -5.496,-1.374 -6.87,-3.778 L 164.868,475.4 c -3.435,-3.435 -3.435,-8.587 0,-12.022 3.435,-3.435 8.587,-3.435 12.022,0 l 3.778,3.778 V 79.691 l -3.778,3.778 c -3.435,3.435 -8.587,3.435 -12.022,0 -3.435,-3.435 -3.435,-8.587 0,-12.022 L 182.73,53.585 c 1.717,-1.717 3.778,-2.404 6.183,-2.404 3.091,0 5.496,1.374 7.213,3.778 l 17.175,17.175 c 3.435,3.435 3.435,8.587 0,12.022 -3.435,3.435 -8.587,3.435 -12.022,0 l -3.778,-3.778 v 387.121 l 3.778,-3.779 c 3.435,-3.435 8.587,-3.435 12.022,0 3.435,3.435 3.435,8.587 0,12.022 l -17.862,17.862 c -1.717,1.718 -4.122,2.749 -6.526,2.749 z M 669.122,472.308 H 259.33 c -4.809,0 -8.587,-3.778 -8.587,-8.587 V 59.425 c 0,-4.809 3.778,-8.587 8.587,-8.587 h 244.913 c 4.809,0 8.587,3.778 8.587,8.587 V 223.96 h 156.291 c 4.809,0 8.587,3.778 8.587,8.587 V 463.72 c -0.343,4.81 -4.121,8.588 -8.586,8.588 z M 512.143,455.133 H 660.534 V 241.135 H 512.143 Z m -162.13,0 H 495.312 V 341.779 H 350.013 Z m -82.096,0 h 65.264 V 341.779 h -65.264 z m 73.508,-130.528 h 153.887 v -92.057 c 0,-1.03 0,-1.717 0.344,-2.404 V 141.522 H 267.917 v 183.084 h 73.508 z M 389.859,124.689 H 495.656 V 68.012 H 389.859 Z m -121.942,0 h 105.11 V 68.012 h -105.11 z"
   id="path8"
   inkscape:connector-curvature="0" />
			</g>
		</g>
	</g>
</g>
</svg>