<?xml version="1.0" encoding="UTF-8" standalone="no"?>
<!-- Generator: Adobe Illustrator 17.0.0, SVG Export Plug-In . SVG Version: 6.00 Build 0)  -->

<svg
   xmlns:dc="http://purl.org/dc/elements/1.1/"
   xmlns:cc="http://creativecommons.org/ns#"
   xmlns:rdf="http://www.w3.org/1999/02/22-rdf-syntax-ns#"
   xmlns:svg="http://www.w3.org/2000/svg"
   xmlns="http://www.w3.org/2000/svg"
   xmlns:sodipodi="http://sodipodi.sourceforge.net/DTD/sodipodi-0.dtd"
   xmlns:inkscape="http://www.inkscape.org/namespaces/inkscape"
   version="1.1"
   x="0px"
   y="0px"
   width="512px"
   height="512px"
   viewBox="0 0 512 512"
   enable-background="new 0 0 512 512"
   xml:space="preserve"
   id="svg401"
   sodipodi:docname="lost Connection.svg"
   inkscape:version="0.92.3 (unknown)"><metadata
   id="metadata407"><rdf:RDF><cc:Work
       rdf:about=""><dc:format>image/svg+xml</dc:format><dc:type
         rdf:resource="http://purl.org/dc/dcmitype/StillImage" /></cc:Work></rdf:RDF></metadata><defs
   id="defs405">
	

	
	

		
		
		
		
		
		
		
		
		
		
		
		
		
		
		
		
		
		
		
		
		
		
		
		
	</defs><sodipodi:namedview
   pagecolor="#ffffff"
   bordercolor="#666666"
   borderopacity="1"
   objecttolerance="10"
   gridtolerance="10"
   guidetolerance="10"
   inkscape:pageopacity="0"
   inkscape:pageshadow="2"
   inkscape:window-width="1366"
   inkscape:window-height="744"
   id="namedview403"
   showgrid="false"
   inkscape:zoom="0.921875"
   inkscape:cx="140.75018"
   inkscape:cy="274.33564"
   inkscape:window-x="0"
   inkscape:window-y="24"
   inkscape:window-maximized="1"
   inkscape:current-layer="svg401" />

<g
   id="g1766"
   transform="matrix(1.3187794,0,0,1.3187794,-83.467666,-43.944447)"><g
     id="g31">
			<g
   id="g29">
				<g
   id="g9">
					<g
   id="g7">
						<path
   style="fill:#343f8c"
   inkscape:connector-curvature="0"
   id="path5"
   d="M 260.254,290.709 H 96.036 c -0.897,0 -1.624,-0.727 -1.624,-1.624 0,-0.897 0.727,-1.624 1.624,-1.624 h 164.218 c 0.897,0 1.624,0.727 1.624,1.624 0,0.897 -0.727,1.624 -1.624,1.624 z" />
					</g>
				</g>
				<g
   id="g15">
					<g
   id="g13">
						<path
   style="fill:#343f8c"
   inkscape:connector-curvature="0"
   id="path11"
   d="m 280.313,290.709 h -8.934 c -0.897,0 -1.624,-0.727 -1.624,-1.624 0,-0.897 0.727,-1.624 1.624,-1.624 h 8.934 c 0.897,0 1.624,0.727 1.624,1.624 0,0.897 -0.727,1.624 -1.624,1.624 z" />
					</g>
				</g>
				<g
   id="g21">
					<g
   id="g19">
						<path
   style="fill:#343f8c"
   inkscape:connector-curvature="0"
   id="path17"
   d="m 351.921,290.709 h -65.51 c -0.897,0 -1.624,-0.727 -1.624,-1.624 0,-0.897 0.727,-1.624 1.624,-1.624 h 65.51 c 0.897,0 1.624,0.727 1.624,1.624 0,0.897 -0.727,1.624 -1.624,1.624 z" />
					</g>
				</g>
				<g
   id="g27">
					<g
   id="g25">
						<path
   style="fill:#343f8c"
   inkscape:connector-curvature="0"
   id="path23"
   d="M 401.773,290.709 H 357.51 c -0.897,0 -1.624,-0.727 -1.624,-1.624 0,-0.897 0.727,-1.624 1.624,-1.624 h 44.264 c 0.897,0 1.624,0.727 1.624,1.624 0,0.897 -0.727,1.624 -1.625,1.624 z" />
					</g>
				</g>
			</g>
		</g><g
     id="g43">
			<g
   id="g41">
				<g
   id="g35">
					<path
   style="fill:#343f8c"
   inkscape:connector-curvature="0"
   id="path33"
   d="m 103.851,389.795 c -0.372,0 -0.746,-0.127 -1.052,-0.387 -0.683,-0.581 -0.765,-1.607 -0.184,-2.29 l 84.319,-99.086 c 0.582,-0.683 1.607,-0.766 2.29,-0.185 0.683,0.581 0.765,1.607 0.184,2.29 l -84.319,99.086 c -0.322,0.378 -0.779,0.572 -1.238,0.572 z" />
				</g>
				<g
   id="g39">
					<path
   style="fill:#343f8c"
   inkscape:connector-curvature="0"
   id="path37"
   d="m 396.539,389.795 c -0.46,0 -0.917,-0.194 -1.238,-0.572 l -84.319,-99.086 c -0.581,-0.683 -0.499,-1.708 0.185,-2.29 0.683,-0.582 1.709,-0.498 2.29,0.185 l 84.319,99.086 c 0.581,0.683 0.499,1.708 -0.185,2.29 -0.305,0.26 -0.68,0.387 -1.052,0.387 z" />
				</g>
			</g>
		</g><g
     id="g139">
			<rect
   style="fill:#ffffff"
   id="rect45"
   height="64.876999"
   width="13.873"
   y="224.207"
   x="211.16299" />
			<rect
   style="fill:#ffffff"
   id="rect47"
   height="64.876999"
   width="13.873"
   y="224.207"
   x="274.89001" />
			<g
   id="g59">
				<g
   id="g57">
					<g
   id="g51">
						<path
   style="fill:#343f8c"
   inkscape:connector-curvature="0"
   id="path49"
   d="M 226.516,290.709 H 210.61 v -77.248 h 15.906 z m -12.658,-3.249 h 9.409 v -70.751 h -9.409 z" />
					</g>
					<g
   id="g55">
						<path
   style="fill:#343f8c"
   inkscape:connector-curvature="0"
   id="path53"
   d="m 289.78,290.709 h -15.906 v -77.248 h 15.906 z m -12.658,-3.249 h 9.409 v -70.751 h -9.409 z" />
					</g>
				</g>
			</g>
			<g
   id="g91">
				<g
   id="g63">
					<rect
   style="fill:#ffffff"
   id="rect61"
   height="23.26"
   width="93.806999"
   y="209.94099"
   x="203.291" />
				</g>
				<g
   id="g83">
					<g
   id="g81">
						<g
   id="g67">
							<polygon
   style="fill:#cb272b"
   id="polygon65"
   points="253.83,209.941 236.432,209.941 213.172,233.202 230.57,233.202 " />
						</g>
						<g
   id="g71">
							<polygon
   style="fill:#cb272b"
   id="polygon69"
   points="219.034,209.941 203.291,209.941 203.291,225.684 " />
						</g>
						<g
   id="g75">
							<polygon
   style="fill:#cb272b"
   id="polygon73"
   points="288.627,209.941 271.229,209.941 247.968,233.202 265.367,233.202 " />
						</g>
						<g
   id="g79">
							<polygon
   style="fill:#cb272b"
   id="polygon77"
   points="297.098,218.868 282.765,233.202 297.098,233.202 " />
						</g>
					</g>
				</g>
				<g
   id="g89">
					<g
   id="g87">
						<path
   style="fill:#343f8c"
   inkscape:connector-curvature="0"
   id="path85"
   d="m 297.098,234.826 h -93.807 c -0.897,0 -1.624,-0.727 -1.624,-1.624 v -23.26 c 0,-0.897 0.727,-1.624 1.624,-1.624 h 93.807 c 0.897,0 1.624,0.727 1.624,1.624 v 23.26 c 0.001,0.897 -0.727,1.624 -1.624,1.624 z m -92.182,-3.249 h 90.558 v -20.012 h -90.558 z" />
					</g>
				</g>
			</g>
			<g
   id="g123">
				<g
   id="g95">
					<rect
   style="fill:#ffffff"
   id="rect93"
   height="23.26"
   width="93.806999"
   y="244.155"
   x="203.291" />
				</g>
				<g
   id="g115">
					<g
   id="g113">
						<g
   id="g99">
							<polygon
   style="fill:#cb272b"
   id="polygon97"
   points="253.83,244.155 236.432,244.155 213.172,267.415 230.57,267.415 " />
						</g>
						<g
   id="g103">
							<polygon
   style="fill:#cb272b"
   id="polygon101"
   points="219.034,244.155 203.291,244.155 203.291,259.897 " />
						</g>
						<g
   id="g107">
							<polygon
   style="fill:#cb272b"
   id="polygon105"
   points="288.627,244.155 271.229,244.155 247.968,267.415 265.367,267.415 " />
						</g>
						<g
   id="g111">
							<polygon
   style="fill:#cb272b"
   id="polygon109"
   points="297.098,253.081 282.765,267.415 297.098,267.415 " />
						</g>
					</g>
				</g>
				<g
   id="g121">
					<g
   id="g119">
						<path
   style="fill:#343f8c"
   inkscape:connector-curvature="0"
   id="path117"
   d="m 297.098,269.039 h -93.807 c -0.897,0 -1.624,-0.727 -1.624,-1.624 v -23.26 c 0,-0.897 0.727,-1.624 1.624,-1.624 h 93.807 c 0.897,0 1.624,0.727 1.624,1.624 v 23.26 c 0.001,0.897 -0.727,1.624 -1.624,1.624 z m -92.182,-3.249 h 90.558 v -20.011 h -90.558 z" />
					</g>
				</g>
			</g>
			<g
   id="g137">
				<g
   id="g129">
					<path
   style="fill:#343f8c"
   inkscape:connector-curvature="0"
   id="path125"
   d="m 223.417,220.969 23.872,-41.347 c 1.292,-2.237 4.52,-2.237 5.812,0 l 23.872,41.347 c 1.292,2.237 -0.323,5.033 -2.906,5.033 h -47.744 c -2.583,10e-4 -4.197,-2.796 -2.906,-5.033 z" />
					<path
   style="fill:#ffffff"
   inkscape:connector-curvature="0"
   id="path127"
   d="m 274.067,227.627 h -47.744 c -1.801,0 -3.413,-0.931 -4.313,-2.49 -0.9,-1.559 -0.9,-3.421 0,-4.98 l 23.872,-41.347 c 0.9,-1.559 2.512,-2.49 4.312,-2.49 1.8,0 3.412,0.931 4.312,2.49 l 23.872,41.348 c 0.9,1.559 0.9,3.42 0,4.979 -0.899,1.559 -2.511,2.49 -4.311,2.49 z m -23.872,-48.058 c -0.301,0 -1.048,0.084 -1.499,0.866 l -23.872,41.347 c -0.451,0.781 -0.15,1.471 0,1.731 0.15,0.26 0.597,0.865 1.499,0.865 h 47.744 c 0.902,0 1.348,-0.605 1.499,-0.866 0.15,-0.26 0.451,-0.949 0,-1.73 l -23.872,-41.348 c -0.451,-0.781 -1.199,-0.865 -1.499,-0.865 z" />
				</g>
				<g
   id="g135">
					<g
   id="g133">
						<path
   style="fill:#ffffff"
   inkscape:connector-curvature="0"
   id="path131"
   d="m 253.483,208.832 h -6.46 l -0.771,-14.296 c -0.124,-2.294 1.703,-4.222 4.001,-4.222 v 0 c 2.297,0 4.124,1.928 4.001,4.222 z m -7.379,6.851 c 0,-1.188 0.352,-2.111 1.057,-2.77 0.705,-0.659 1.729,-0.989 3.073,-0.989 1.331,0 2.339,0.33 3.024,0.989 0.686,0.659 1.028,1.583 1.028,2.77 0,1.174 -0.356,2.091 -1.067,2.75 -0.712,0.659 -1.706,0.989 -2.985,0.989 -1.292,0 -2.303,-0.33 -3.034,-0.989 -0.731,-0.658 -1.096,-1.575 -1.096,-2.75 z" />
					</g>
				</g>
			</g>
		</g><g
     id="g183">
			<g
   id="g145">
				<path
   style="fill:#ffffff"
   inkscape:connector-curvature="0"
   id="path141"
   d="m 95.71,268.349 c 0.608,0 1.2,0.063 1.778,0.163 1.712,-7.464 8.39,-13.033 16.373,-13.033 6.873,0 12.779,4.129 15.382,10.04 1.093,-0.326 2.248,-0.507 3.447,-0.507 6.647,0 12.036,5.389 12.036,12.036 0,6.647 -5.389,12.036 -12.036,12.036 H 95.71 c -5.726,0 -10.367,-4.642 -10.367,-10.368 -0.001,-5.725 4.641,-10.367 10.367,-10.367 z" />
				<path
   style="fill:#343f8c"
   inkscape:connector-curvature="0"
   id="path143"
   d="M 132.689,290.709 H 95.71 c -6.612,0 -11.992,-5.379 -11.992,-11.992 0,-6.612 5.38,-11.992 11.992,-11.992 0.19,0 0.382,0.005 0.576,0.016 2.392,-7.656 9.424,-12.885 17.575,-12.885 6.843,0 13.089,3.795 16.27,9.777 0.844,-0.162 1.701,-0.243 2.558,-0.243 7.532,0 13.66,6.128 13.66,13.66 0,7.531 -6.128,13.659 -13.66,13.659 z M 95.71,269.974 c -4.821,0 -8.743,3.922 -8.743,8.744 0,4.821 3.922,8.743 8.743,8.743 h 36.98 c 5.741,0 10.411,-4.671 10.411,-10.412 0,-5.741 -4.67,-10.411 -10.411,-10.411 -1.005,0 -2.008,0.147 -2.981,0.439 -0.784,0.235 -1.622,-0.151 -1.952,-0.902 -2.426,-5.51 -7.88,-9.07 -13.895,-9.07 -7.118,0 -13.2,4.841 -14.789,11.772 -0.193,0.841 -1.006,1.383 -1.859,1.237 -0.547,-0.094 -1.038,-0.14 -1.504,-0.14 z" />
			</g>
			<g
   id="g151">
				<path
   style="fill:#ffffff"
   inkscape:connector-curvature="0"
   id="path147"
   d="m 167.147,215.683 c 0,-6.87 -3.52,-12.916 -8.853,-16.44 1.945,-3.053 3.077,-6.676 3.077,-10.565 0,-8.101 -4.892,-15.056 -11.882,-18.081 1.238,-2.578 1.933,-5.467 1.933,-8.518 0,-10.878 -8.818,-19.695 -19.695,-19.695 -10.877,0 -19.695,8.818 -19.695,19.695 0,2.512 0.476,4.912 1.333,7.122 -9.487,1.416 -16.765,9.596 -16.765,19.477 0,5.228 2.041,9.976 5.364,13.503 -3.324,3.526 -5.364,8.275 -5.364,13.503 0,10.281 7.879,18.718 17.928,19.613 3.368,6.024 9.806,10.1 17.199,10.1 7.383,0 13.814,-4.065 17.186,-10.077 10.194,-0.749 18.234,-9.251 18.234,-19.637 z" />
				<path
   style="fill:#343f8c"
   inkscape:connector-curvature="0"
   id="path149"
   d="m 131.727,247.02 c -7.429,0 -14.321,-3.886 -18.187,-10.198 -10.642,-1.361 -18.564,-10.305 -18.564,-21.139 0,-4.956 1.704,-9.697 4.826,-13.503 -3.122,-3.806 -4.826,-8.546 -4.826,-13.503 0,-9.828 6.867,-18.413 16.26,-20.713 -0.55,-1.91 -0.828,-3.882 -0.828,-5.886 0,-11.756 9.564,-21.32 21.32,-21.32 11.756,0 21.32,9.564 21.32,21.32 0,2.679 -0.485,5.272 -1.444,7.73 6.972,3.667 11.393,10.906 11.393,18.869 0,3.544 -0.878,7.008 -2.549,10.106 5.24,4.028 8.325,10.237 8.325,16.899 0,10.818 -8.225,19.956 -18.88,21.175 -3.872,6.291 -10.754,10.163 -18.166,10.163 z m 0,-103.012 c -9.964,0 -18.071,8.107 -18.071,18.071 0,2.245 0.411,4.443 1.223,6.534 0.178,0.46 0.138,0.977 -0.11,1.404 -0.248,0.427 -0.677,0.718 -1.165,0.791 -8.768,1.308 -15.38,8.991 -15.38,17.871 0,4.621 1.748,9.021 4.922,12.389 0.59,0.625 0.59,1.603 0,2.228 -3.174,3.368 -4.922,7.768 -4.922,12.389 0,9.424 7.071,17.16 16.448,17.995 0.535,0.048 1.012,0.356 1.274,0.825 3.197,5.717 9.244,9.268 15.781,9.268 6.527,0 12.569,-3.543 15.769,-9.247 0.266,-0.475 0.754,-0.785 1.298,-0.825 9.381,-0.688 16.729,-8.602 16.729,-18.016 0,-6.084 -3.037,-11.723 -8.124,-15.085 -0.74,-0.488 -0.951,-1.48 -0.475,-2.228 1.847,-2.899 2.823,-6.25 2.823,-9.692 0,-7.212 -4.28,-13.724 -10.903,-16.59 -0.405,-0.175 -0.722,-0.509 -0.876,-0.923 -0.155,-0.414 -0.134,-0.873 0.058,-1.272 1.176,-2.448 1.773,-5.078 1.773,-7.814 -0.001,-9.966 -8.108,-18.073 -18.072,-18.073 z" />
			</g>
			<g
   id="g157">
				<g
   id="g155">
					<path
   style="fill:#343f8c"
   inkscape:connector-curvature="0"
   id="path153"
   d="m 131.93,270.303 c -0.897,0 -1.624,-0.727 -1.624,-1.624 V 165.937 c 0,-0.897 0.727,-1.624 1.624,-1.624 0.897,0 1.624,0.727 1.624,1.624 v 102.741 c 0,0.897 -0.727,1.625 -1.624,1.625 z" />
				</g>
			</g>
			<g
   id="g163">
				<g
   id="g161">
					<path
   style="fill:#343f8c"
   inkscape:connector-curvature="0"
   id="path159"
   d="m 131.93,192.333 c -0.416,0 -0.832,-0.159 -1.148,-0.476 l -11.167,-11.168 c -0.635,-0.634 -0.635,-1.663 0,-2.297 0.634,-0.635 1.663,-0.635 2.297,0 l 11.168,11.167 c 0.634,0.634 0.634,1.663 0,2.297 -0.318,0.318 -0.734,0.477 -1.15,0.477 z" />
				</g>
			</g>
			<g
   id="g169">
				<g
   id="g167">
					<path
   style="fill:#343f8c"
   inkscape:connector-curvature="0"
   id="path165"
   d="m 131.93,211.826 c -0.416,0 -0.831,-0.159 -1.148,-0.476 -0.634,-0.634 -0.634,-1.663 0,-2.297 l 15.522,-15.522 c 0.634,-0.634 1.662,-0.634 2.297,0 0.634,0.634 0.634,1.663 0,2.297 l -15.522,15.522 c -0.317,0.317 -0.733,0.476 -1.149,0.476 z" />
				</g>
			</g>
			<g
   id="g175">
				<g
   id="g173">
					<path
   style="fill:#343f8c"
   inkscape:connector-curvature="0"
   id="path171"
   d="m 131.93,234.161 c -0.416,0 -0.832,-0.159 -1.148,-0.476 l -19.898,-19.898 c -0.635,-0.634 -0.635,-1.663 0,-2.297 0.634,-0.634 1.663,-0.634 2.297,0 l 19.899,19.898 c 0.634,0.634 0.634,1.663 0,2.297 -0.318,0.317 -0.734,0.476 -1.15,0.476 z" />
				</g>
			</g>
			<g
   id="g181">
				<path
   style="fill:#ffffff"
   inkscape:connector-curvature="0"
   id="path177"
   d="m 170.711,265.531 c -0.69,0 -1.362,0.072 -2.02,0.185 -1.944,-8.478 -9.53,-14.805 -18.598,-14.805 -7.808,0 -14.516,4.69 -17.473,11.405 -1.241,-0.371 -2.553,-0.576 -3.915,-0.576 -7.551,0 -13.672,6.121 -13.672,13.672 0,7.551 6.121,13.672 13.672,13.672 h 42.006 c 6.504,0 11.777,-5.273 11.777,-11.777 0,-6.504 -5.273,-11.776 -11.777,-11.776 z" />
				<path
   style="fill:#343f8c"
   inkscape:connector-curvature="0"
   id="path179"
   d="m 170.711,290.709 h -42.006 c -8.434,0 -15.296,-6.862 -15.296,-15.296 0,-8.434 6.862,-15.297 15.296,-15.297 1.014,0 2.026,0.102 3.025,0.305 3.552,-6.806 10.617,-11.133 18.363,-11.133 9.22,0 17.165,5.952 19.804,14.647 0.275,-0.018 0.546,-0.028 0.815,-0.028 7.389,0 13.401,6.012 13.401,13.401 -0.001,7.389 -6.013,13.401 -13.402,13.401 z m -42.006,-27.344 c -6.643,0 -12.047,5.405 -12.047,12.048 0,6.643 5.405,12.047 12.047,12.047 h 42.006 c 5.598,0 10.152,-4.554 10.152,-10.152 0,-5.598 -4.554,-10.152 -10.152,-10.152 -0.546,0 -1.116,0.053 -1.742,0.162 -0.851,0.14 -1.668,-0.396 -1.861,-1.237 -1.829,-7.974 -8.826,-13.544 -17.015,-13.544 -6.92,0 -13.195,4.097 -15.986,10.435 -0.33,0.75 -1.166,1.135 -1.952,0.902 -1.128,-0.338 -2.288,-0.509 -3.45,-0.509 z" />
			</g>
		</g><g
     id="g227">
			<g
   id="g189">
				<path
   style="fill:#ffffff"
   inkscape:connector-curvature="0"
   id="path185"
   d="m 404.68,268.349 c -0.608,0 -1.199,0.063 -1.779,0.163 -1.712,-7.464 -8.389,-13.033 -16.373,-13.033 -6.873,0 -12.779,4.129 -15.382,10.04 -1.093,-0.326 -2.248,-0.507 -3.447,-0.507 -6.647,0 -12.036,5.389 -12.036,12.036 0,6.647 5.389,12.036 12.036,12.036 h 36.979 c 5.726,0 10.367,-4.642 10.367,-10.368 0.002,-5.725 -4.639,-10.367 -10.365,-10.367 z" />
				<path
   style="fill:#343f8c"
   inkscape:connector-curvature="0"
   id="path187"
   d="M 404.68,290.709 H 367.7 c -7.533,0 -13.66,-6.128 -13.66,-13.66 0,-7.532 6.128,-13.66 13.66,-13.66 0.858,0 1.714,0.082 2.558,0.243 3.182,-5.982 9.427,-9.777 16.271,-9.777 8.15,0 15.182,5.229 17.575,12.885 0.194,-0.01 0.386,-0.016 0.577,-0.016 6.613,0 11.992,5.38 11.992,11.992 -10e-4,6.614 -5.38,11.993 -11.993,11.993 z M 367.7,266.638 c -5.741,0 -10.412,4.67 -10.412,10.411 0,5.741 4.671,10.412 10.412,10.412 h 36.98 c 4.821,0 8.743,-3.922 8.743,-8.743 0,-4.822 -3.922,-8.744 -8.743,-8.744 -0.466,0 -0.958,0.046 -1.503,0.14 -0.843,0.144 -1.666,-0.396 -1.859,-1.237 -1.589,-6.931 -7.671,-11.772 -14.789,-11.772 -6.014,0 -11.469,3.56 -13.896,9.07 -0.33,0.749 -1.165,1.137 -1.952,0.902 -0.973,-0.292 -1.976,-0.439 -2.981,-0.439 z" />
			</g>
			<g
   id="g195">
				<g
   id="g193">
					<path
   style="fill:#343f8c"
   inkscape:connector-curvature="0"
   id="path191"
   d="m 373.747,247.02 c -7.412,0 -14.294,-3.872 -18.165,-10.161 -10.655,-1.219 -18.881,-10.358 -18.881,-21.175 0,-6.662 3.085,-12.871 8.326,-16.899 -1.672,-3.098 -2.549,-6.562 -2.549,-10.106 0,-7.963 4.422,-15.203 11.393,-18.869 -0.959,-2.458 -1.444,-5.05 -1.444,-7.73 0,-11.756 9.564,-21.32 21.32,-21.32 11.756,0 21.32,9.564 21.32,21.32 0,2.003 -0.278,3.976 -0.828,5.886 9.393,2.299 16.26,10.885 16.26,20.713 0,4.956 -1.704,9.697 -4.826,13.503 3.123,3.806 4.826,8.546 4.826,13.503 0,10.834 -7.922,19.778 -18.564,21.139 -3.868,6.31 -10.76,10.196 -18.188,10.196 z m 0,-103.012 c -9.964,0 -18.071,8.107 -18.071,18.071 0,2.737 0.596,5.367 1.772,7.815 0.191,0.398 0.212,0.857 0.058,1.271 -0.155,0.414 -0.471,0.747 -0.877,0.923 -6.623,2.866 -10.902,9.378 -10.902,16.59 0,3.441 0.976,6.793 2.822,9.692 0.477,0.747 0.266,1.739 -0.474,2.227 -5.087,3.362 -8.124,9.001 -8.124,15.085 0,9.414 7.349,17.327 16.73,18.016 0.543,0.04 1.031,0.35 1.298,0.825 3.2,5.704 9.242,9.247 15.769,9.247 6.537,0 12.584,-3.551 15.78,-9.268 0.262,-0.469 0.739,-0.778 1.274,-0.825 9.377,-0.834 16.448,-8.57 16.448,-17.995 0,-4.621 -1.748,-9.021 -4.921,-12.389 -0.59,-0.626 -0.59,-1.602 0,-2.228 3.173,-3.368 4.921,-7.768 4.921,-12.389 0,-8.88 -6.612,-16.562 -15.38,-17.871 -0.489,-0.073 -0.917,-0.364 -1.165,-0.791 -0.248,-0.427 -0.288,-0.943 -0.109,-1.404 0.811,-2.091 1.223,-4.29 1.223,-6.534 -0.001,-9.961 -8.108,-18.068 -18.072,-18.068 z" />
				</g>
			</g>
			<g
   id="g201">
				<g
   id="g199">
					<path
   style="fill:#343f8c"
   inkscape:connector-curvature="0"
   id="path197"
   d="m 373.543,270.303 c -0.897,0 -1.624,-0.727 -1.624,-1.624 V 165.937 c 0,-0.897 0.727,-1.624 1.624,-1.624 0.897,0 1.624,0.727 1.624,1.624 v 102.741 c 0.001,0.897 -0.726,1.625 -1.624,1.625 z" />
				</g>
			</g>
			<g
   id="g207">
				<g
   id="g205">
					<path
   style="fill:#343f8c"
   inkscape:connector-curvature="0"
   id="path203"
   d="m 373.543,192.333 c -0.416,0 -0.831,-0.159 -1.148,-0.476 -0.634,-0.634 -0.634,-1.663 0,-2.297 l 11.168,-11.167 c 0.635,-0.635 1.663,-0.635 2.297,0 0.634,0.634 0.634,1.663 0,2.297 l -11.168,11.168 c -0.317,0.316 -0.733,0.475 -1.149,0.475 z" />
				</g>
			</g>
			<g
   id="g213">
				<g
   id="g211">
					<path
   style="fill:#343f8c"
   inkscape:connector-curvature="0"
   id="path209"
   d="m 373.543,211.826 c -0.416,0 -0.831,-0.159 -1.148,-0.476 l -15.523,-15.522 c -0.634,-0.634 -0.634,-1.663 0,-2.297 0.635,-0.634 1.663,-0.634 2.297,0 l 15.523,15.522 c 0.635,0.634 0.635,1.663 0,2.297 -0.317,0.317 -0.733,0.476 -1.149,0.476 z" />
				</g>
			</g>
			<g
   id="g219">
				<g
   id="g217">
					<path
   style="fill:#343f8c"
   inkscape:connector-curvature="0"
   id="path215"
   d="m 373.543,234.161 c -0.416,0 -0.831,-0.159 -1.148,-0.476 -0.634,-0.634 -0.634,-1.663 0,-2.297 l 19.898,-19.898 c 0.635,-0.634 1.662,-0.634 2.297,0 0.635,0.634 0.635,1.663 0,2.297 l -19.898,19.898 c -0.317,0.317 -0.733,0.476 -1.149,0.476 z" />
				</g>
			</g>
			<g
   id="g225">
				<path
   style="fill:#ffffff"
   inkscape:connector-curvature="0"
   id="path221"
   d="m 336.071,265.531 c 0.69,0 1.363,0.072 2.02,0.185 1.944,-8.478 9.53,-14.805 18.598,-14.805 7.808,0 14.516,4.69 17.473,11.405 1.241,-0.371 2.553,-0.576 3.915,-0.576 7.551,0 13.672,6.121 13.672,13.672 0,7.551 -6.121,13.672 -13.672,13.672 h -42.006 c -6.504,0 -11.777,-5.273 -11.777,-11.777 0,-6.504 5.273,-11.776 11.777,-11.776 z" />
				<path
   style="fill:#343f8c"
   inkscape:connector-curvature="0"
   id="path223"
   d="M 378.076,290.709 H 336.07 c -7.389,0 -13.401,-6.012 -13.401,-13.401 0,-7.389 6.012,-13.401 13.401,-13.401 0.269,0 0.539,0.01 0.815,0.028 2.639,-8.695 10.585,-14.647 19.804,-14.647 7.747,0 14.811,4.327 18.363,11.134 0.998,-0.203 2.011,-0.305 3.024,-0.305 8.434,0 15.297,6.862 15.297,15.297 0,8.433 -6.862,15.295 -15.297,15.295 z M 336.07,267.155 c -5.598,0 -10.152,4.554 -10.152,10.152 0,5.598 4.554,10.152 10.152,10.152 h 42.006 c 6.643,0 12.048,-5.404 12.048,-12.047 0,-6.643 -5.405,-12.048 -12.048,-12.048 -1.16,0 -2.322,0.171 -3.449,0.508 -0.787,0.236 -1.622,-0.152 -1.952,-0.902 -2.791,-6.34 -9.066,-10.435 -15.986,-10.435 -8.189,0 -15.186,5.57 -17.015,13.544 -0.193,0.842 -1.003,1.382 -1.862,1.237 -0.626,-0.107 -1.195,-0.161 -1.742,-0.161 z" />
			</g>
		</g><g
     id="g241">
			<g
   id="g239">
				<g
   id="g233">
					<g
   id="g231">
						<path
   style="fill:#343f8c"
   inkscape:connector-curvature="0"
   id="path229"
   d="m 153.824,111.216 h -26.878 c -0.897,0 -1.624,-0.727 -1.624,-1.624 0,-0.897 0.727,-1.624 1.624,-1.624 h 26.878 c 5.598,0 10.152,-4.554 10.152,-10.152 0,-5.598 -4.554,-10.152 -10.152,-10.152 -0.546,0 -1.116,0.053 -1.742,0.162 -0.855,0.147 -1.668,-0.396 -1.861,-1.237 -1.829,-7.974 -8.826,-13.544 -17.015,-13.544 -6.92,0 -13.195,4.096 -15.985,10.435 -0.33,0.75 -1.167,1.136 -1.951,0.902 -1.13,-0.337 -2.291,-0.508 -3.451,-0.508 -6.643,0 -12.047,5.404 -12.047,12.047 0,6.643 5.404,12.048 12.047,12.048 0.897,0 1.624,0.727 1.624,1.624 0,0.897 -0.727,1.624 -1.624,1.624 -8.434,0 -15.296,-6.862 -15.296,-15.296 0,-8.434 6.862,-15.296 15.296,-15.296 1.013,0 2.026,0.102 3.025,0.305 3.552,-6.807 10.616,-11.134 18.363,-11.134 9.22,0 17.165,5.952 19.804,14.647 0.275,-0.019 0.546,-0.028 0.814,-0.028 7.389,0 13.401,6.012 13.401,13.401 -0.001,7.389 -6.013,13.4 -13.402,13.4 z" />
					</g>
				</g>
				<g
   id="g237">
					<path
   style="fill:#343f8c"
   inkscape:connector-curvature="0"
   id="path235"
   d="m 120.753,111.216 h -1.421 c -0.897,0 -1.624,-0.727 -1.624,-1.624 0,-0.897 0.727,-1.624 1.624,-1.624 h 1.421 c 0.897,0 1.624,0.727 1.624,1.624 0.001,0.897 -0.727,1.624 -1.624,1.624 z" />
				</g>
			</g>
		</g><g
     id="g253">
			<g
   id="g251">
				<g
   id="g245">
					<path
   style="fill:#343f8c"
   inkscape:connector-curvature="0"
   id="path243"
   d="m 398.072,133.958 h -31.281 c -5.731,0 -10.394,-4.663 -10.394,-10.394 0,-5.731 4.663,-10.394 10.394,-10.394 0.102,0 0.205,0.002 0.307,0.005 2.111,-6.481 8.107,-10.892 15.048,-10.892 5.82,0 11.137,3.194 13.897,8.242 1.915,-0.336 3.887,-0.19 5.713,0.409 0.852,0.28 1.317,1.198 1.037,2.05 -0.279,0.852 -1.197,1.318 -2.05,1.037 -1.63,-0.535 -3.429,-0.568 -5.12,-0.063 -0.788,0.235 -1.621,-0.153 -1.951,-0.902 -2.013,-4.57 -6.536,-7.523 -11.525,-7.523 -5.904,0 -10.948,4.015 -12.267,9.764 -0.193,0.841 -1.01,1.384 -1.861,1.237 -0.443,-0.077 -0.844,-0.114 -1.227,-0.114 -3.94,0 -7.145,3.206 -7.145,7.146 0,3.94 3.205,7.146 7.145,7.146 h 31.281 c 4.718,0 8.557,-3.839 8.557,-8.557 0,-0.802 -0.111,-1.597 -0.33,-2.361 -0.247,-0.863 0.252,-1.762 1.114,-2.009 0.862,-0.249 1.761,0.252 2.009,1.114 0.302,1.055 0.455,2.151 0.455,3.256 0,6.507 -5.296,11.803 -11.806,11.803 z" />
				</g>
				<g
   id="g249">
					<path
   style="fill:#343f8c"
   inkscape:connector-curvature="0"
   id="path247"
   d="m 405.389,116.699 c -0.416,0 -0.831,-0.159 -1.148,-0.476 l -0.609,-0.609 c -0.634,-0.634 -0.634,-1.663 0,-2.297 0.635,-0.634 1.663,-0.634 2.297,0 l 0.609,0.609 c 0.635,0.634 0.635,1.663 0,2.297 -0.318,0.317 -0.733,0.476 -1.149,0.476 z" />
				</g>
			</g>
		</g><g
     id="g257">
			<circle
   style="fill:#ffffff"
   id="circle255"
   r="4.0609999"
   cy="116.699"
   cx="288.763" />
		</g><g
     id="g261">
			<circle
   style="fill:#ffffff"
   id="circle259"
   r="3.4549999"
   cy="208.317"
   cx="187.567" />
		</g><g
     id="g267">
			<g
   id="g265">
				<circle
   style="fill:#cb272b"
   id="circle263"
   r="2.5380001"
   cy="147.46001"
   cx="405.38901" />
			</g>
		</g><g
     id="g273">
			<g
   id="g271">
				<circle
   style="fill:#cb272b"
   id="circle269"
   r="2.5380001"
   cy="84.386002"
   cx="205.728" />
			</g>
		</g><g
     id="g279">
			<g
   id="g277">
				<circle
   style="fill:#cb272b"
   id="circle275"
   r="2.5380001"
   cy="132.414"
   cx="110.867" />
			</g>
		</g><g
     id="g283">
			<circle
   style="fill:#ffffff"
   id="circle281"
   r="2.6270001"
   cy="190.32001"
   cx="284.78601" />
		</g><g
     id="g289">
			<g
   id="g287">
				<circle
   style="fill:#cb272b"
   id="circle285"
   r="1.827"
   cy="259.77899"
   cx="429.48401" />
			</g>
		</g><g
     id="g295">
			<g
   id="g293">
				<circle
   style="fill:#cb272b"
   id="circle291"
   r="3.5409999"
   cy="211.826"
   cx="440.58401" />
			</g>
		</g><g
     id="g301">
			<g
   id="g299">
				<circle
   style="fill:#cb272b"
   id="circle297"
   r="1.827"
   cy="102.282"
   cx="338.32599" />
			</g>
		</g><g
     id="g307">
			<g
   id="g305">
				<circle
   style="fill:#cb272b"
   id="circle303"
   r="3.181"
   cy="197.22301"
   cx="71.056" />
			</g>
		</g><g
     id="g313">
			<g
   id="g311">
				<circle
   style="fill:#cb272b"
   id="circle309"
   r="1.827"
   cy="240.00301"
   cx="94.061996" />
			</g>
		</g><g
     id="g317">
			<circle
   style="fill:#ffffff"
   id="circle315"
   r="1.827"
   cy="244.155"
   cx="179.59" />
		</g><g
     id="g321">
			<path
   style="fill:#ffffff"
   inkscape:connector-curvature="0"
   id="path319"
   d="m 326.798,243.974 h -2.707 v -2.707 c 0,-0.785 -0.636,-1.421 -1.421,-1.421 -0.785,0 -1.421,0.636 -1.421,1.421 v 2.707 h -2.707 c -0.785,0 -1.421,0.636 -1.421,1.421 0,0.785 0.636,1.421 1.421,1.421 h 2.707 v 2.707 c 0,0.785 0.636,1.421 1.421,1.421 0.785,0 1.421,-0.636 1.421,-1.421 v -2.707 h 2.707 c 0.785,0 1.421,-0.636 1.421,-1.421 0,-0.784 -0.636,-1.421 -1.421,-1.421 z" />
		</g><g
     id="g325">
			<path
   style="fill:#ffffff"
   inkscape:connector-curvature="0"
   id="path323"
   d="m 205.796,124.888 h -2.707 v -2.707 c 0,-0.785 -0.636,-1.421 -1.421,-1.421 -0.785,0 -1.421,0.636 -1.421,1.421 v 2.707 h -2.707 c -0.785,0 -1.421,0.636 -1.421,1.421 0,0.785 0.636,1.421 1.421,1.421 h 2.707 v 2.707 c 0,0.785 0.636,1.421 1.421,1.421 0.785,0 1.421,-0.636 1.421,-1.421 v -2.707 h 2.707 c 0.785,0 1.421,-0.636 1.421,-1.421 0,-0.785 -0.637,-1.421 -1.421,-1.421 z" />
		</g></g>

</svg>